<?xml version="1.0" encoding="UTF-8" standalone="no"?>
<!-- Created with Inkscape (http://www.inkscape.org/) -->

<svg
   width="210mm"
   height="297mm"
   viewBox="0 0 210 297"
   version="1.1"
   id="svg1"
   inkscape:version="1.4.2 (ebf0e94, 2025-05-08)"
   sodipodi:docname="dibujo.svg"
   xmlns:inkscape="http://www.inkscape.org/namespaces/inkscape"
   xmlns:sodipodi="http://sodipodi.sourceforge.net/DTD/sodipodi-0.dtd"
   xmlns="http://www.w3.org/2000/svg"
   xmlns:svg="http://www.w3.org/2000/svg">
  <sodipodi:namedview
     id="namedview1"
     pagecolor="#ffffff"
     bordercolor="#000000"
     borderopacity="0.25"
     inkscape:showpageshadow="2"
     inkscape:pageopacity="0.0"
     inkscape:pagecheckerboard="0"
     inkscape:deskcolor="#d1d1d1"
     inkscape:document-units="mm"
     inkscape:zoom="0.76167929"
     inkscape:cx="840.24865"
     inkscape:cy="549.44385"
     inkscape:window-width="1904"
     inkscape:window-height="1041"
     inkscape:window-x="7"
     inkscape:window-y="0"
     inkscape:window-maximized="0"
     inkscape:current-layer="layer1" />
  <defs
     id="defs1">
    <inkscape:path-effect
       effect="spiro"
       id="path-effect16"
       is_visible="true"
       lpeversion="1" />
    <inkscape:path-effect
       effect="simplify"
       id="path-effect15"
       is_visible="true"
       lpeversion="1.3"
       threshold="10.869565"
       steps="1"
       smooth_angles="360"
       helper_size="0"
       simplify_individual_paths="false"
       simplify_just_coalesce="false" />
  </defs>
  <g
     inkscape:label="Capa 1"
     inkscape:groupmode="layer"
     id="layer1">
    <path
       id="path15"
       style="fill:#000000;stroke-width:0.350468"
       d="m 50.368502,-5.5578003 0.160713,0.9518799 c -0.01387,-0.3222174 -0.05907,-0.6429204 -0.160713,-0.9518799 z m 0.160713,0.9518799 c 0.0097,0.2248712 3.36e-4,0.4503653 -0.02945,0.6733439 l 0.0078,0.024805 c 0.04306,-0.01894 0.08697,-0.036349 0.130742,-0.052193 z m 1.829863,10.8598022 c -0.01692,0.010631 -0.03427,0.020439 -0.05168,0.029972 0.02576,0.041937 0.05166,0.084207 0.07751,0.1260905 z m 1.903243,10.3394202 v 5.17e-4 h 5.17e-4 v -5.17e-4 z m 0,5.17e-4 h -5.17e-4 v 5.17e-4 h 5.17e-4 z m -0.06046,0.0124 v 5.16e-4 5.17e-4 c 0.0015,6.83e-4 0.0031,0.0014 0.0046,0.0021 v -5.17e-4 c -0.0015,-5.18e-4 -0.0036,-0.0017 -0.0046,-0.0026 z m -0.09199,0.02532 v 5.17e-4 l -5.16e-4,5.16e-4 h -5.17e-4 l 5.17e-4,0.0031 h 5.16e-4 v -5.17e-4 h 5.17e-4 c -6e-6,-0.0012 0,-0.0024 0,-0.0036 z m 0.965316,1.25212 c -0.01052,0.0038 -0.02113,0.0078 -0.03152,0.01189 -0.02945,0.01133 -0.05835,0.02299 -0.08578,0.03876 -0.03165,0.01536 -0.06373,0.03057 -0.09457,0.04754 -0.04144,0.02148 -0.08344,0.04138 -0.127124,0.05788 -0.04911,0.02082 -0.09859,0.04112 -0.148312,0.06046 -0.04214,0.01808 -0.08368,0.03652 -0.123506,0.05943 -0.02203,0.01159 -0.04438,0.02321 -0.06718,0.03359 -0.0034,0.005 -0.0065,0.01007 -0.0093,0.0155 -0.0034,0.0067 -0.0077,0.01138 -0.01189,0.01447 L 84.474947,196.80556 c 0.08305,0.002 0.165992,0.005 0.248564,0.015 0.923909,-7.32672 1.600703,-14.67969 2.029333,-22.04413 0.765882,-13.1589 0.739083,-26.34872 1.60507,-39.5025 1.290988,-19.60928 4.564183,-39.24826 2.60811,-58.81191 -0.139498,-1.395229 -0.30482,-2.797034 -0.467155,-4.201294 1.038865,1.242015 2.085987,2.479116 3.134692,3.713468 5.478857,6.448747 11.039599,12.854987 16.448609,19.356958 -0.14116,-0.930682 -0.23332,-1.867587 -0.26872,-2.809648 -0.1974,-5.250596 1.35245,-10.408024 2.76572,-15.501896 1.41326,-5.093879 2.71099,-10.345805 2.00247,-15.559774 -0.35429,-2.606983 -1.22247,-5.177078 -2.73782,-7.412984 -1.51535,-2.235906 -3.6979,-4.126191 -6.32726,-5.211051 -2.62937,-1.084862 -5.709247,-1.324829 -8.440832,-0.47439 -2.731581,0.85044 -5.056046,2.831461 -5.971728,5.322673 -0.08343,0.226939 -0.15543,0.456737 -0.223759,0.687813 C 89.165093,60.171969 89.802874,66.2396 90.498869,72.260189 86.416407,67.379738 82.449235,62.418023 78.909395,57.20116 75.784091,52.595219 73.002105,47.804309 69.961104,43.151888 66.505091,37.864542 62.711026,32.74994 59.650623,27.264486 57.948082,24.212858 56.491932,21.0555 55.075191,17.883663 Z m 55.006979,77.447469 c 0.59047,3.892452 2.04508,7.675808 3.85506,11.257708 1.81251,3.58681 3.98326,7.01009 6.08749,10.46448 0.26346,0.35336 0.52786,0.70627 0.79426,1.05782 1.1798,1.5079 2.37645,3.00534 3.69073,4.41988 1.58748,1.725 3.15624,3.47658 4.98368,5.00021 1.76444,1.44367 3.71716,2.64635 5.81308,3.66335 0.0287,0.0121 0.0576,0.0241 0.0863,0.0362 0.0258,-0.0369 0.0484,-0.0755 0.0708,-0.11472 0.0381,-0.0692 0.0757,-0.13899 0.1173,-0.20619 0.0398,-0.0655 0.077,-0.13286 0.11576,-0.19896 0.0445,-0.0785 0.0823,-0.16006 0.12557,-0.23926 0.0241,-0.0419 0.0474,-0.0844 0.0708,-0.1266 -2.16773,-2.90882 -4.08558,-5.9812 -6.08232,-8.9948 -5.98463,-9.03239 -12.72956,-17.60592 -19.72851,-26.019088 z m 30.1687,11.280968 -0.001,5.1e-4 v 5.2e-4 h -5.2e-4 -0.001 -5.2e-4 -5.2e-4 -0.001 v 5.2e-4 h -5.2e-4 c -3.8e-4,3.1e-4 -0.001,0.001 -0.002,0.002 -0.007,0.0114 -0.0106,0.0413 -0.0119,0.093 0.0316,-0.0107 0.0632,-0.0196 0.0946,-0.0294 9.5e-4,-0.007 0.001,-0.0161 0.002,-0.0238 -0.0396,-0.0282 -0.0621,-0.044 -0.076,-0.0434 h -0.001 z m -4.3279,23.90448 5.2e-4,5.2e-4 5.1e-4,-5.2e-4 z m -0.002,0.005 v 5.2e-4 h 5.2e-4 v -5.2e-4 z m 0.001,0.002 -5.2e-4,5.1e-4 v 5.2e-4 5.2e-4 h 5.2e-4 5.1e-4 l 5.2e-4,5.1e-4 h 5.2e-4 5.1e-4 l 5.2e-4,5.2e-4 h 5.2e-4 v -5.2e-4 l -5.2e-4,-5.1e-4 -5.2e-4,-5.2e-4 h -5.1e-4 l -5.2e-4,-5.2e-4 h -5.2e-4 z m 21.07778,10.9492 c -0.0285,4.7e-4 -0.0648,0.0133 -0.12506,0.0455 -0.0104,0.005 -0.0209,0.0113 -0.031,0.0171 0.0851,-8.5e-4 0.17121,-0.005 0.25838,-0.0145 -0.043,-0.0284 -0.0659,-0.0487 -0.10232,-0.0481 z m -72.505136,55.44726 v 5.2e-4 5.1e-4 5.2e-4 5.2e-4 h 0.0083 c -0.0028,-4.1e-4 -0.0055,-0.001 -0.0083,-0.002 z m 0.201021,0.12247 c -0.0025,1.3e-4 -0.0052,4.1e-4 -0.0078,5.2e-4 0.0026,-1.2e-4 0.0053,2e-5 0.0078,5.2e-4 v -5.2e-4 z m -0.0078,5.2e-4 c -0.0014,6e-5 -0.0028,-6e-5 -0.0041,0 v 5.2e-4 c 0.0014,-2.4e-4 0.0028,-4.6e-4 0.0041,-5.2e-4 z m -0.02015,0.20309 c -2.94e-4,0.003 -0.001,0.006 -0.001,0.009 -9.2e-5,0.001 -4.27e-4,0.002 -5.17e-4,0.003 h 5.17e-4 5.16e-4 5.17e-4 c 5.12e-4,-0.004 0.0015,-0.009 0.0021,-0.0124 h -5.17e-4 -5.16e-4 -5.17e-4 z m -0.109037,0.0553 5.17e-4,0.004 h 0.0031 l -5.16e-4,-5.2e-4 -5.17e-4,-5.1e-4 c -6.34e-4,-8.2e-4 -0.0018,-0.002 -0.0026,-0.003 z m 0.01395,0.0832 0.0041,0.0248 c 4.61e-4,-0.008 0.0011,-0.0168 0.0015,-0.0248 -0.0018,-1e-5 -0.0039,0 -0.0057,0 z" />
    <g
       id="g121">
      <path
         sodipodi:type="spiral"
         style="fill:none;fill-rule:evenodd;stroke:#000000;stroke-width:0.264583"
         id="path40"
         sodipodi:cx="85.452629"
         sodipodi:cy="97.263161"
         sodipodi:expansion="1"
         sodipodi:revolution="3.0355914"
         sodipodi:radius="97.703812"
         sodipodi:argument="-17.502058"
         sodipodi:t0="0"
         d="m 85.452629,97.263161 c 1.072088,4.721079 -5.834991,3.774369 -7.846746,1.781881 -5.45173,-5.399516 -1.357045,-14.159656 4.282984,-17.475373 10.088689,-5.931039 22.548753,0.47802 27.104003,10.347848 6.68501,14.484373 -2.29829,31.076653 -16.412717,36.732623 -18.812307,7.53853 -39.657099,-4.1081 -46.361252,-22.47757 C 37.782408,83.056456 52.130564,57.909171 74.761342,50.182687 102.17025,40.824879 131.64575,57.894136 140.37985,84.789993 150.67268,116.48583 130.87101,150.30462 99.707678,160.03713 63.728378,171.27369 25.5567,148.73249 14.831918,113.30009 2.6457393,73.039543 27.931235,30.508453 67.633818,18.795704 112.17412,5.6557707 159.06925,33.688904 171.76683,77.662469 185.86355,126.48146 155.08034,177.74405 106.8352,191.42411 c -6.97605,1.97808 -14.173662,3.1656 -21.414686,3.54286"
         transform="matrix(1.0254124,0,0,1.0385872,-3.0705144,-5.8011184)" />
    </g>
    <rect
       style="fill:none;fill-rule:evenodd;stroke-width:0.264583"
       id="rect72"
       width="1.2049341"
       height="1.2157894"
       x="135.3597"
       y="130.52911"
       ry="0.14111842" />
  </g>
</svg>
