<?xml version="1.0" encoding="UTF-8" standalone="no"?>
<!-- Created with Inkscape (http://www.inkscape.org/) -->

<svg
   width="210mm"
   height="297mm"
   viewBox="0 0 210 297"
   version="1.1"
   id="svg1"
   inkscape:version="1.4.2 (ebf0e94, 2025-05-08)"
   sodipodi:docname="dibujo.svg"
   xmlns:inkscape="http://www.inkscape.org/namespaces/inkscape"
   xmlns:sodipodi="http://sodipodi.sourceforge.net/DTD/sodipodi-0.dtd"
   xmlns="http://www.w3.org/2000/svg"
   xmlns:svg="http://www.w3.org/2000/svg">
  <sodipodi:namedview
     id="namedview1"
     pagecolor="#ffffff"
     bordercolor="#000000"
     borderopacity="0.25"
     inkscape:showpageshadow="2"
     inkscape:pageopacity="0.0"
     inkscape:pagecheckerboard="0"
     inkscape:deskcolor="#d1d1d1"
     inkscape:document-units="mm"
     inkscape:zoom="0.76167929"
     inkscape:cx="427.34522"
     inkscape:cy="441.78699"
     inkscape:window-width="1904"
     inkscape:window-height="1041"
     inkscape:window-x="0"
     inkscape:window-y="0"
     inkscape:window-maximized="0"
     inkscape:current-layer="layer1" />
  <defs
     id="defs1">
    <inkscape:path-effect
       effect="spiro"
       id="path-effect16"
       is_visible="true"
       lpeversion="1" />
    <inkscape:path-effect
       effect="simplify"
       id="path-effect15"
       is_visible="true"
       lpeversion="1.3"
       threshold="10.869565"
       steps="1"
       smooth_angles="360"
       helper_size="0"
       simplify_individual_paths="false"
       simplify_just_coalesce="false" />
  </defs>
  <g
     inkscape:label="Capa 1"
     inkscape:groupmode="layer"
     id="layer1">
    <g
       id="g3"
       transform="matrix(1.1125462,0,0,1.1266473,-16.270557,3.2922286)">
      <ellipse
         style="fill:#ffffff;fill-rule:evenodd;stroke-width:0.25146"
         id="path2"
         cx="109.07368"
         cy="121.23158"
         rx="94.136841"
         ry="99.347366" />
      <g
         id="g2"
         transform="translate(8.1631579,-13.026317)">
        <path
           id="path15"
           style="fill:#000000;stroke-width:0.350468"
           d="m 59.400081,30.915884 0.160713,0.95188 c -0.01387,-0.322217 -0.05907,-0.64292 -0.160713,-0.95188 z m 0.160713,0.95188 c 0.0097,0.224871 3.36e-4,0.450365 -0.02945,0.673344 l 0.0078,0.02481 c 0.04306,-0.01894 0.08697,-0.03635 0.130742,-0.05219 z m 1.829863,10.859802 c -0.01692,0.01063 -0.03427,0.02044 -0.05168,0.02997 0.02576,0.04194 0.05166,0.08421 0.07751,0.126091 z m 1.903243,10.33942 v 5.17e-4 h 5.17e-4 v -5.17e-4 z m 0,5.17e-4 h -5.17e-4 v 5.17e-4 h 5.17e-4 z m -0.06046,0.0124 v 5.16e-4 5.17e-4 c 0.0015,6.83e-4 0.0031,0.0014 0.0046,0.0021 v -5.17e-4 c -0.0015,-5.18e-4 -0.0036,-0.0017 -0.0046,-0.0026 z m -0.09199,0.02532 v 5.17e-4 l -5.16e-4,5.16e-4 h -5.17e-4 l 5.17e-4,0.0031 h 5.16e-4 v -5.17e-4 h 5.17e-4 c -6e-6,-0.0012 0,-0.0024 0,-0.0036 z m 0.965316,1.25212 c -0.01052,0.0038 -0.02113,0.0078 -0.03152,0.01189 -0.02945,0.01133 -0.05835,0.02299 -0.08578,0.03876 -0.03165,0.01536 -0.06373,0.03057 -0.09457,0.04754 -0.04144,0.02148 -0.08344,0.04138 -0.127124,0.05788 -0.04911,0.02082 -0.09859,0.04112 -0.148312,0.06046 -0.04214,0.01808 -0.08368,0.03652 -0.123506,0.05943 -0.02203,0.01159 -0.04438,0.02321 -0.06718,0.03359 -0.0034,0.005 -0.0065,0.01007 -0.0093,0.0155 -0.0034,0.0067 -0.0077,0.01138 -0.01189,0.01447 L 93.506526,233.27924 c 0.08305,0.002 0.165992,0.005 0.248564,0.015 0.923909,-7.32672 1.600703,-14.67969 2.029333,-22.04413 0.765882,-13.1589 0.739083,-26.34872 1.60507,-39.5025 1.290988,-19.60928 4.564187,-39.24826 2.60811,-58.81191 -0.139498,-1.39522 -0.30482,-2.79703 -0.467155,-4.20129 1.038862,1.24202 2.085982,2.47912 3.134692,3.71347 5.47886,6.44875 11.0396,12.85499 16.44861,19.35696 -0.14116,-0.93069 -0.23332,-1.86759 -0.26872,-2.80965 -0.1974,-5.2506 1.35245,-10.40803 2.76572,-15.5019 1.41326,-5.09388 2.71099,-10.3458 2.00247,-15.559772 -0.35429,-2.606983 -1.22247,-5.177078 -2.73782,-7.412984 -1.51535,-2.235906 -3.6979,-4.126191 -6.32726,-5.211051 -2.62937,-1.084862 -5.70925,-1.324829 -8.44083,-0.47439 -2.73158,0.85044 -5.05605,2.831461 -5.97173,5.322673 -0.0834,0.226939 -0.155431,0.456737 -0.22376,0.687813 -1.715148,5.800074 -1.077367,11.867701 -0.381372,17.888291 C 95.447986,103.85342 91.480814,98.891707 87.940974,93.674844 84.81567,89.068903 82.033684,84.277993 78.992683,79.625572 75.53667,74.338226 71.742605,69.223624 68.682202,63.73817 66.979661,60.686542 65.523511,57.529184 64.10677,54.357347 Z m 55.006974,77.447467 c 0.59047,3.89245 2.04508,7.67581 3.85506,11.25771 1.81251,3.58681 3.98326,7.01009 6.08749,10.46448 0.26346,0.35336 0.52786,0.70627 0.79426,1.05782 1.1798,1.5079 2.37645,3.00534 3.69073,4.41988 1.58748,1.725 3.15624,3.47658 4.98368,5.00021 1.76444,1.44367 3.71716,2.64635 5.81308,3.66335 0.0287,0.0121 0.0576,0.0241 0.0863,0.0362 0.0258,-0.0369 0.0484,-0.0755 0.0708,-0.11472 0.0381,-0.0692 0.0757,-0.13899 0.1173,-0.20619 0.0398,-0.0655 0.077,-0.13286 0.11576,-0.19896 0.0445,-0.0785 0.0823,-0.16006 0.12557,-0.23926 0.0241,-0.0419 0.0474,-0.0844 0.0708,-0.1266 -2.16773,-2.90882 -4.08558,-5.9812 -6.08232,-8.9948 -5.98463,-9.03239 -12.72956,-17.60592 -19.72851,-26.01909 z m 30.1687,11.28097 -0.001,5.1e-4 v 5.2e-4 h -5.2e-4 -0.001 -5.2e-4 -5.2e-4 -10e-4 v 5.2e-4 h -5.2e-4 c -3.8e-4,3.1e-4 -10e-4,0.001 -0.002,0.002 -0.007,0.0114 -0.0106,0.0413 -0.0119,0.093 0.0316,-0.0107 0.0632,-0.0196 0.0946,-0.0294 9.5e-4,-0.007 0.001,-0.0161 0.002,-0.0238 -0.0396,-0.0282 -0.0621,-0.044 -0.076,-0.0434 h -0.001 z m -4.3279,23.90448 5.2e-4,5.2e-4 5.1e-4,-5.2e-4 z m -0.002,0.005 v 5.2e-4 h 5.2e-4 v -5.2e-4 z m 0.001,0.002 -5.2e-4,5.1e-4 v 5.2e-4 5.2e-4 h 5.2e-4 5.1e-4 l 5.2e-4,5.1e-4 h 5.2e-4 5.1e-4 l 5.2e-4,5.2e-4 h 5.2e-4 v -5.2e-4 l -5.2e-4,-5.1e-4 -5.2e-4,-5.2e-4 h -5.1e-4 l -5.2e-4,-5.2e-4 h -5.2e-4 z m 21.07778,10.9492 c -0.0285,4.7e-4 -0.0648,0.0133 -0.12506,0.0455 -0.0104,0.005 -0.0209,0.0113 -0.031,0.0171 0.0851,-8.5e-4 0.17121,-0.005 0.25838,-0.0145 -0.043,-0.0284 -0.0659,-0.0487 -0.10232,-0.0481 z m -72.505131,55.44726 v 5.2e-4 5.1e-4 5.2e-4 5.2e-4 h 0.0083 c -0.0028,-4.1e-4 -0.0055,-0.001 -0.0083,-0.002 z m 0.201021,0.12247 c -0.0025,1.3e-4 -0.0052,4.1e-4 -0.0078,5.2e-4 0.0026,-1.2e-4 0.0053,2e-5 0.0078,5.2e-4 v -5.2e-4 z m -0.0078,5.2e-4 c -0.0014,6e-5 -0.0028,-6e-5 -0.0041,0 v 5.2e-4 c 0.0014,-2.4e-4 0.0028,-4.6e-4 0.0041,-5.2e-4 z m -0.02015,0.20309 c -2.94e-4,0.003 -10e-4,0.006 -10e-4,0.009 -9.2e-5,0.001 -4.27e-4,0.002 -5.17e-4,0.003 h 5.17e-4 5.16e-4 5.17e-4 c 5.12e-4,-0.004 0.0015,-0.009 0.0021,-0.0124 h -5.17e-4 -5.16e-4 -5.17e-4 z m -0.109037,0.0553 5.17e-4,0.004 h 0.0031 l -5.16e-4,-5.2e-4 -5.17e-4,-5.1e-4 c -6.34e-4,-8.2e-4 -0.0018,-0.002 -0.0026,-0.003 z m 0.01395,0.0832 0.0041,0.0248 c 4.61e-4,-0.008 0.0011,-0.0168 0.0015,-0.0248 -0.0018,-1e-5 -0.0039,0 -0.0057,0 z" />
        <g
           id="g121"
           transform="translate(9.031579,36.473684)">
          <path
             sodipodi:type="spiral"
             style="fill:none;fill-rule:evenodd;stroke:#000000;stroke-width:0.264583"
             id="path40"
             sodipodi:cx="85.452629"
             sodipodi:cy="97.263161"
             sodipodi:expansion="1"
             sodipodi:revolution="3.0355914"
             sodipodi:radius="97.703812"
             sodipodi:argument="-17.502058"
             sodipodi:t0="0"
             d="m 85.452629,97.263161 c 1.072088,4.721079 -5.834991,3.774369 -7.846746,1.781881 -5.45173,-5.399516 -1.357045,-14.159656 4.282984,-17.475373 10.088689,-5.931039 22.548753,0.47802 27.104003,10.347848 6.68501,14.484373 -2.29829,31.076653 -16.412717,36.732623 -18.812307,7.53853 -39.657099,-4.1081 -46.361252,-22.47757 C 37.782408,83.056456 52.130564,57.909171 74.761342,50.182687 102.17025,40.824879 131.64575,57.894136 140.37985,84.789993 150.67268,116.48583 130.87101,150.30462 99.707678,160.03713 63.728378,171.27369 25.5567,148.73249 14.831918,113.30009 2.6457393,73.039543 27.931235,30.508453 67.633818,18.795704 112.17412,5.6557707 159.06925,33.688904 171.76683,77.662469 185.86355,126.48146 155.08034,177.74405 106.8352,191.42411 c -6.97605,1.97808 -14.173662,3.1656 -21.414686,3.54286"
             transform="matrix(1.0254124,0,0,1.0385872,-3.0705144,-5.8011184)" />
        </g>
      </g>
    </g>
  </g>
</svg>
